<?xml version="1.0"?>
<svg id="Art" xmlns="http://www.w3.org/2000/svg" viewBox="0 0 800 800">
  <defs>
    
  </defs>
  <path id="logo_amplitude_mark-circle" class="cls-1" d="M773.57534,373.63316c-76.33847-6.02143-179.59322-9.65601-276.4388-11.85029-29.34968-114.6311-91.76837-323.1523-168.82938-323.1523-80.57154,0-139.59236,156.88257-179.23817,318.93826l-111.06666-1.58305C17.12502,355.68819.04111,372.53033.04111,393.40977v.00008c0,20.67087,16.75699,37.42786,37.42779,37.42786h94.95206c-11.21571,53.07824-19.70846,97.66933-26.20503,139.49858-2.31226,14.88796,9.2265,28.31713,24.29294,28.31713h.00008c10.84163,0,20.39778-7.10121,23.52863-17.48089,21.53738-71.4019,46.65012-150.11745,46.65012-150.11745h235.67205c33.20548,121.27234,79.28622,323.07095,157.40449,323.07095,69.22028,0,103.54641-84.63274,132.62027-215.01838,4.26226-19.11481,8.78419-35.80683,13.41477-50.4082,2.52697-7.96818-3.42229-16.08563-11.76174-16.15258-5.34143-.04299-10.06193,3.49446-11.90943,8.50647-8.00358,21.71335-14.97553,41.96397-20.18064,56.5329-31.77566,88.93738-48.11573,143.92513-83.26842,143.92513-46.45126,0-80.22863-176.58701-98.65002-250.45629h257.25583c15.88161,0,28.75626-12.87465,28.75626-28.75626v-.00008c0-14.99501-11.51715-27.48648-26.46577-28.66558ZM217.73711,358.44072c37.4287-146.4844,82.67674-247.63022,107.74362-247.63022,22.63687,0,60.35898,133.78905,91.69703,249.43345-106.331-1.70792-190.7952-1.79845-199.44064-1.80322Z"></path>
</svg>