<?xml version="1.0"?>
<svg id="Art" xmlns="http://www.w3.org/2000/svg" viewBox="0 0 3839.79427 800">
  <g id="logo_amplitude_full">
    <path id="logo_amplitude_logotype" d="M1114.30604,144.22391l-173.84092,435.81661h77.19517l34.33667-87.22404h184.17336l33.74036,87.22404h79.01663l-173.53734-435.81661h-61.08393ZM1078.74422,423.22157l65.34484-166.85866,64.72685,166.85866h-130.07169ZM1744.01046,269.43838c-20.87089,0-40.11547,4.81386-57.74459,14.43073-17.61828,9.62771-30.69375,22.64898-39.20474,39.05295-18.03028-35.6594-49.4396-53.48368-94.2063-53.48368-18.04112,0-35.41003,3.90313-52.12842,11.69854-16.71839,7.80625-30.23839,20.31794-40.57083,37.53507v-42.8585h-68.98776v304.22703h68.98776v-170.50158c0-24.3078,6.63532-42.64166,19.90595-55.00156,13.27063-12.3599,29.21924-18.53985,47.86751-18.53985,20.66489,0,36.97128,6.52689,48.93003,19.60237,11.9479,13.06463,17.9327,31.05154,17.9327,53.93904v170.50158h69.59492v-170.50158c0-24.3078,6.58111-42.64166,19.75416-55.00156,13.17305-12.3599,29.17587-18.53985,48.0193-18.53985,20.45889,0,36.57013,6.52689,48.32288,19.60237,11.75275,13.06463,17.62912,31.05154,17.62912,53.93904v170.50158h70.50564v-185.99482c0-37.89285-11.49254-68.13124-34.48846-90.72601-22.99592-22.58392-53.03915-33.88131-90.11886-33.88131ZM2186.86354,290.71042c-22.19361-14.18136-46.55563-21.27204-73.09689-21.27204-24.3078,0-45.68826,5.26922-64.1197,15.79682-18.44227,10.53844-33.24163,25.64137-44.37638,45.28711v-54.70882h-68.98776v410.59807h68.98776v-161.06902c11.13475,19.45058,25.93411,34.44509,44.37638,44.97269,18.43143,10.53844,39.81189,15.80766,64.1197,15.80766,40.32147,0,74.56056-15.3523,102.72812-46.04605,28.15672-30.69375,42.2405-68.02282,42.2405-111.99805,0-28.76387-6.42932-55.30514-19.29879-79.62378-12.86948-24.31865-30.39018-43.56323-52.57295-57.74459ZM2163.91099,493.27185c-17.82428,17.9327-39.60589,26.89905-65.334,26.89905-26.74726,0-48.98424-8.81456-66.71094-26.44368-17.73754-17.62912-26.59547-39.50831-26.59547-65.64842,0-26.54126,8.85793-48.62645,26.59547-66.25557,17.7267-17.61828,39.96368-26.43284,66.71094-26.43284,25.72811,0,47.50972,8.96635,65.334,26.88821,17.83512,17.9327,26.74726,39.8661,26.74726,65.80021,0,25.53295-8.91214,47.26036-26.74726,65.19306ZM2313.4441,580.04052h68.98776V144.22391h-68.98776v435.81661ZM2449.45722,580.04052h68.98776v-304.22703h-68.98776v304.22703ZM2484.40105,134.49862c-12.1539,0-22.59477,4.35849-31.30091,13.06463-8.71698,8.71698-13.06463,19.04943-13.06463,30.99733,0,12.3599,4.34765,22.89834,13.06463,31.61533,8.70614,8.70614,19.147,13.06463,31.30091,13.06463,12.16474,0,22.64898-4.35849,31.46354-13.06463,8.81456-8.71698,13.21642-19.25542,13.21642-31.61533,0-11.9479-4.40186-22.28035-13.21642-30.99733-8.81456-8.70614-19.29879-13.06463-31.46354-13.06463ZM2689.85729,194.06467h-69.59492v81.74882h-57.74459v65.952h57.74459v123.69659c0,37.89285,10.12645,67.06872,30.39018,87.52761,20.25289,20.46973,47.50972,30.7046,81.74882,30.7046,14.18136,0,26.64968-1.21431,37.38328-3.65376v-64.1197c-6.27753,1.61546-13.78021,2.42861-22.48635,2.42861-17.83512,0-31.86469-4.4127-42.08871-13.22726-10.23487-8.81456-15.3523-22.43214-15.3523-40.87441v-122.48228h79.92736v-65.952h-79.92736v-81.74882ZM3036.01041,440.54712c0,23.90665-6.83047,43.05365-20.5131,57.44101-13.67179,14.38736-31.75627,21.57562-54.24262,21.57562-22.29119,0-40.22389-7.18826-53.79809-21.57562-13.57421-14.38736-20.36131-33.53436-20.36131-57.44101v-164.73363h-68.98776v172.94103c0,42.75008,11.24317,76.32781,33.72952,100.74403,22.49719,24.41623,53.3861,36.62434,92.69926,36.62434,20.05773,0,37.88201-4.66207,53.48368-13.9862,15.60166-9.31329,28.26514-22.6815,37.99043-40.11547v48.0193h69.60576v-304.22703h-69.60576v164.73363ZM3412.17423,329.30801c-11.14559-19.24458-25.82569-34.04394-44.06196-44.37638-18.23627-10.33244-39.41074-15.49324-63.52338-15.49324-26.54126,0-50.95749,6.98226-73.23783,20.96846-22.29119,13.97536-39.92031,33.12237-52.88736,57.44101-12.96705,24.31865-19.45058,50.85991-19.45058,79.62378,0,28.77472,6.48353,55.37019,19.45058,79.78641,12.96705,24.41623,30.59618,43.66081,52.88736,57.74459,22.28035,14.08378,46.69657,21.12025,73.23783,21.12025,24.11265,0,45.28711-5.11743,63.52338-15.3523,18.23627-10.22402,32.91637-24.96917,44.06196-44.21375v53.48368h69.90933V144.22391h-69.90933v185.08409ZM3385.5896,493.57543c-17.73754,17.73754-39.76852,26.59547-66.10379,26.59547-25.73895,0-47.52057-8.96635-65.34484-26.89905-17.83512-17.9327-26.74726-39.85526-26.74726-65.80021,0-25.52211,8.91214-47.26036,26.74726-65.19306,17.82428-17.92186,39.60589-26.88821,65.34484-26.88821,26.33526,0,48.36624,8.81456,66.10379,26.43284,17.7267,17.62912,26.58463,39.51916,26.58463,65.64842,0,26.3461-8.85793,48.37709-26.58463,66.10379ZM3839.79427,421.40011c0-28.98071-6.68953-55.16419-20.05773-78.57211-13.37905-23.39708-31.35512-41.48156-53.94988-54.24262-22.59477-12.7719-47.46636-19.147-74.61477-19.147-28.76387,0-55.15335,6.88468-79.16842,20.66489-24.00423,13.78021-42.95608,32.667-56.83386,56.68207-13.87778,24.00423-20.81668,50.50212-20.81668,79.47199,0,29.78302,6.93889,56.94228,20.81668,81.45608,13.87778,24.5138,32.873,43.71502,56.98565,57.5928,24.11265,13.87778,50.85991,20.81668,80.24178,20.81668,37.48086,0,69.38892-9.72529,95.73502-29.17587,26.33526-19.45058,42.33808-45.17869,48.0193-77.19517h-69.60576c-3.03577,12.96705-11.29738,23.5055-24.76317,31.60448-13.47663,8.10983-29.53366,12.1539-48.17109,12.1539-24.11265,0-43.86681-6.48353-59.26247-19.45058-15.40651-12.95621-25.3378-30.79133-29.79387-53.48368h233.41781c1.21431-5.47522,1.82146-15.20051,1.82146-29.17587ZM3606.3873,391.31351c5.06322-18.64827,14.68009-33.13321,28.87229-43.46565,14.18136-10.33244,31.49606-15.50409,51.96579-15.50409,20.66489,0,37.93622,5.43185,51.81401,16.26303,13.87778,10.84202,22.3454,25.07759,25.38116,42.70671h-158.03326Z"></path>
    <path id="logo_amplitude_mark-circle" d="M400,0C179.11627,0,0,179.11621,0,400s179.11627,400,400,400,400-179.11694,400-400S620.88379,0,400,0ZM674.30933,412.20886h-190.08447c13.61145,54.58142,38.56927,185.06018,72.89178,185.06018,25.97406,0,38.04761-40.62988,61.52643-106.34509,3.84601-10.76489,8.99756-25.72791,14.91132-41.77185,1.36511-3.70325,4.85303-6.31702,8.7998-6.28528,6.16193.04944,10.5578,6.04749,8.69067,11.93494-3.42151,10.78894-6.76276,23.12256-9.91211,37.24634-21.48242,96.34106-46.84576,158.87549-97.99213,158.87549-57.72101,0-91.76971-149.10742-116.30505-238.71472h-174.13635s-18.5556,58.16235-34.46942,110.92065c-2.31335,7.66956-9.37433,12.9165-17.38513,12.9165h-.00006c-11.13251,0-19.65839-9.92273-17.94989-20.92322,4.80029-30.90747,11.0755-63.85547,19.36273-103.07458h-70.15942c-15.2735,0-27.65509-12.38159-27.65509-27.65515h0c0-15.42773,12.62317-27.87231,28.04926-27.65234l82.06635,1.16968c29.29401-119.74182,72.90405-235.66113,132.43781-235.66113,56.93982,0,103.06055,154.07471,124.74683,238.7749,71.55847,1.62134,147.85266,4.30688,204.25861,8.7561,11.04541.87109,19.55536,10.10107,19.55536,21.18066v.00012c0,11.73474-9.513,21.2478-21.2478,21.2478ZM344.9079,175.58252c-18.52173,0-51.9552,74.73584-79.61096,182.97217,6.38806.00342,68.79803.07031,147.36523,1.33228-23.15546-85.44873-51.02808-184.30444-67.75427-184.30444Z"></path>
  </g>
</svg>